Oxanium-SemiBold.ufo
<glyph name="exclam" format="2">
  <advance width="271"/>
  <unicode hex="0021"/>
  <outline>
    <contour>
      <point x="70" y="0" type="line"/>
      <point x="70" y="131" type="line"/>
      <point x="201" y="131" type="line"/>
      <point x="201" y="0" type="line"/>
    </contour>
    <contour>
      <point x="75" y="218" type="line"/>
      <point x="75" y="690" type="line"/>
      <point x="197" y="690" type="line"/>
      <point x="197" y="218" type="line"/>
    </contour>
  </outline>
</glyph>
<glyph name="ampersand" format="2">
  <advance width="670"/>
  <unicode hex="0026"/>
  <outline>
    <contour>
      <point x="65" y="158" type="qcurve" smooth="yes"/>
      <point x="65" y="251" type="line" smooth="yes"/>
      <point x="65" y="303"/>
      <point x="98" y="331" type="qcurve" smooth="yes"/>
      <point x="140" y="366" type="line"/>
      <point x="105" y="408" type="line" smooth="yes"/>
      <point x="85" y="432"/>
      <point x="85" y="466" type="qcurve" smooth="yes"/>
      <point x="85" y="532" type="line" smooth="yes"/>
      <point x="85" y="690"/>
      <point x="243" y="690" type="qcurve" smooth="yes"/>
      <point x="427" y="690" type="line"/>
      <point x="480" y="651" type="line"/>
      <point x="480" y="588" type="line"/>
      <point x="248" y="588" type="line" smooth="yes"/>
      <point x="202" y="588"/>
      <point x="202" y="542" type="qcurve" smooth="yes"/>
      <point x="202" y="459" type="line" smooth="yes"/>
      <point x="202" y="413"/>
      <point x="248" y="413" type="qcurve" smooth="yes"/>
      <point x="630" y="413" type="line"/>
      <point x="630" y="311" type="line"/>
      <point x="530" y="311" type="line"/>
      <point x="530" y="0" type="line"/>
      <point x="223" y="0" type="line" smooth="yes"/>
      <point x="65" y="0"/>
    </contour>
    <contour>
      <point x="182" y="148" type="line" smooth="yes"/>
      <point x="182" y="102"/>
      <point x="228" y="102" type="qcurve" smooth="yes"/>
      <point x="414" y="102" type="line"/>
      <point x="414" y="311" type="line"/>
      <point x="228" y="311" type="line" smooth="yes"/>
      <point x="182" y="311"/>
      <point x="182" y="265" type="qcurve" smooth="yes"/>
    </contour>
  </outline>
</glyph>
<glyph name="quotesingle" format="2">
  <advance width="235"/>
  <unicode hex="0027"/>
  <outline>
    <contour>
      <point x="65" y="477" type="line"/>
      <point x="65" y="740" type="line"/>
      <point x="170" y="740" type="line"/>
      <point x="170" y="477" type="line"/>
    </contour>
  </outline>
</glyph>
<glyph name="parenleft" format="2">
  <advance width="334"/>
  <unicode hex="0028"/>
  <outline>
    <contour>
      <point x="66" y="560"/>
      <point x="227" y="776" type="qcurve"/>
      <point x="315" y="710" type="line"/>
      <point x="184" y="525"/>
      <point x="184" y="55"/>
      <point x="315" y="-130" type="qcurve"/>
      <point x="227" y="-196" type="line"/>
      <point x="66" y="20"/>
    </contour>
  </outline>
</glyph>
<glyph name="parenright" format="2">
  <advance width="334"/>
  <unicode hex="0029"/>
  <outline>
    <contour>
      <point x="19" y="-130" type="line"/>
      <point x="149" y="55"/>
      <point x="149" y="525"/>
      <point x="19" y="710" type="qcurve"/>
      <point x="107" y="776" type="line"/>
      <point x="268" y="560"/>
      <point x="268" y="20"/>
      <point x="107" y="-196" type="qcurve"/>
    </contour>
  </outline>
</glyph>
<glyph name="comma" format="2">
  <advance width="271"/>
  <unicode hex="002C"/>
  <outline>
    <contour>
      <point x="26" y="-124" type="line"/>
      <point x="81" y="131" type="line"/>
      <point x="199" y="131" type="line"/>
      <point x="211" y="113" type="line"/>
      <point x="112" y="-146" type="line"/>
    </contour>
  </outline>
</glyph>
<glyph name="zero" format="2">
  <advance width="578"/>
  <unicode hex="0030"/>
  <outline>
    <contour>
      <point x="56" y="162" type="qcurve" smooth="yes"/>
      <point x="56" y="528" type="line" smooth="yes"/>
      <point x="56" y="690"/>
      <point x="219" y="690" type="qcurve" smooth="yes"/>
      <point x="359" y="690" type="line" smooth="yes"/>
      <point x="522" y="690"/>
      <point x="522" y="528" type="qcurve" smooth="yes"/>
      <point x="522" y="162" type="line" smooth="yes"/>
      <point x="522" y="0"/>
      <point x="359" y="0" type="qcurve" smooth="yes"/>
      <point x="219" y="0" type="line" smooth="yes"/>
      <point x="56" y="0"/>
    </contour>
    <contour>
      <point x="178" y="154" type="line" smooth="yes"/>
      <point x="178" y="110"/>
      <point x="222" y="110" type="qcurve" smooth="yes"/>
      <point x="356" y="110" type="line" smooth="yes"/>
      <point x="400" y="110"/>
      <point x="400" y="154" type="qcurve" smooth="yes"/>
      <point x="400" y="536" type="line" smooth="yes"/>
      <point x="400" y="580"/>
      <point x="356" y="580" type="qcurve" smooth="yes"/>
      <point x="222" y="580" type="line" smooth="yes"/>
      <point x="178" y="580"/>
      <point x="178" y="536" type="qcurve" smooth="yes"/>
    </contour>
  </outline>
</glyph>
<glyph name="four" format="2">
  <advance width="578"/>
  <unicode hex="0034"/>
  <outline>
    <contour>
      <point x="56" y="112" type="line"/>
      <point x="56" y="212" type="line"/>
      <point x="275" y="690" type="line"/>
      <point x="378" y="690" type="line"/>
      <point x="392" y="664" type="line"/>
      <point x="190" y="222" type="line"/>
      <point x="400" y="222" type="line"/>
      <point x="400" y="430" type="line"/>
      <point x="522" y="430" type="line"/>
      <point x="522" y="0" type="line"/>
      <point x="400" y="0" type="line"/>
      <point x="400" y="112" type="line"/>
    </contour>
  </outline>
</glyph>
<glyph name="seven" format="2">
  <advance width="578"/>
  <unicode hex="0037"/>
  <outline>
    <contour>
      <point x="56" y="580" type="line"/>
      <point x="56" y="690" type="line"/>
      <point x="522" y="690" type="line"/>
      <point x="522" y="490" type="line"/>
      <point x="265" y="0" type="line"/>
      <point x="156" y="0" type="line"/>
      <point x="141" y="26" type="line"/>
      <point x="400" y="516" type="line"/>
      <point x="400" y="580" type="line"/>
    </contour>
  </outline>
</glyph>
<glyph name="less" format="2">
  <advance width="578"/>
  <unicode hex="003C"/>
  <outline>
    <contour>
      <point x="64" y="280" type="line"/>
      <point x="64" y="390" type="line"/>
      <point x="478" y="588" type="line"/>
      <point x="520" y="499" type="line"/>
      <point x="171" y="335" type="line"/>
      <point x="520" y="171" type="line"/>
      <point x="478" y="82" type="line"/>
    </contour>
  </outline>
</glyph>
<glyph name="at" format="2">
  <advance width="805"/>
  <unicode hex="0040"/>
  <outline>
    <contour>
      <point x="85" y="13" type="qcurve" smooth="yes"/>
      <point x="85" y="537" type="line" smooth="yes"/>
      <point x="85" y="690"/>
      <point x="238" y="690" type="qcurve" smooth="yes"/>
      <point x="720" y="690" type="line"/>
      <point x="720" y="60" type="line"/>
      <point x="463" y="60" type="line" smooth="yes"/>
      <point x="305" y="60"/>
      <point x="305" y="218" type="qcurve" smooth="yes"/>
      <point x="305" y="332" type="line" smooth="yes"/>
      <point x="305" y="490"/>
      <point x="463" y="490" type="qcurve" smooth="yes"/>
      <point x="615" y="490" type="line"/>
      <point x="615" y="598" type="line"/>
      <point x="240" y="598" type="line" smooth="yes"/>
      <point x="190" y="598"/>
      <point x="190" y="549" type="qcurve" smooth="yes"/>
      <point x="190" y="1" type="line" smooth="yes"/>
      <point x="190" y="-48"/>
      <point x="240" y="-48" type="qcurve" smooth="yes"/>
      <point x="700" y="-48" type="line"/>
      <point x="700" y="-101" type="line"/>
      <point x="647" y="-140" type="line"/>
      <point x="238" y="-140" type="line" smooth="yes"/>
      <point x="85" y="-140"/>
    </contour>
    <contour>
      <point x="422" y="208" type="line" smooth="yes"/>
      <point x="422" y="162"/>
      <point x="468" y="162" type="qcurve" smooth="yes"/>
      <point x="604" y="162" type="line"/>
      <point x="604" y="388" type="line"/>
      <point x="468" y="388" type="line" smooth="yes"/>
      <point x="422" y="388"/>
      <point x="422" y="342" type="qcurve" smooth="yes"/>
    </contour>
  </outline>
</glyph>
<glyph name="B" format="2">
  <advance width="649"/>
  <unicode hex="0042"/>
  <outline>
    <contour>
      <point x="85" y="0" type="line"/>
      <point x="85" y="690" type="line"/>
      <point x="408" y="690" type="line" smooth="yes"/>
      <point x="570" y="690"/>
      <point x="570" y="528" type="qcurve" smooth="yes"/>
      <point x="570" y="464" type="line" smooth="yes"/>
      <point x="570" y="430"/>
      <point x="550" y="406" type="qcurve" smooth="yes"/>
      <point x="515" y="364" type="line"/>
      <point x="557" y="329" type="line" smooth="yes"/>
      <point x="590" y="302"/>
      <point x="590" y="249" type="qcurve" smooth="yes"/>
      <point x="590" y="162" type="line" smooth="yes"/>
      <point x="590" y="0"/>
      <point x="428" y="0" type="qcurve" smooth="yes"/>
    </contour>
    <contour>
      <point x="207" y="110" type="line"/>
      <point x="424" y="110" type="line" smooth="yes"/>
      <point x="468" y="110"/>
      <point x="468" y="154" type="qcurve" smooth="yes"/>
      <point x="468" y="259" type="line" smooth="yes"/>
      <point x="468" y="303"/>
      <point x="424" y="303" type="qcurve" smooth="yes"/>
      <point x="207" y="303" type="line"/>
    </contour>
    <contour>
      <point x="207" y="413" type="line"/>
      <point x="404" y="413" type="line" smooth="yes"/>
      <point x="448" y="413"/>
      <point x="448" y="457" type="qcurve" smooth="yes"/>
      <point x="448" y="536" type="line" smooth="yes"/>
      <point x="448" y="580"/>
      <point x="404" y="580" type="qcurve" smooth="yes"/>
      <point x="207" y="580" type="line"/>
    </contour>
  </outline>
</glyph>
<glyph name="D" format="2">
  <advance width="685"/>
  <unicode hex="0044"/>
  <outline>
    <contour>
      <point x="85" y="0" type="line"/>
      <point x="85" y="690" type="line"/>
      <point x="350" y="690" type="line" smooth="yes"/>
      <point x="620" y="690"/>
      <point x="620" y="420" type="qcurve" smooth="yes"/>
      <point x="620" y="270" type="line" smooth="yes"/>
      <point x="620" y="0"/>
      <point x="350" y="0" type="qcurve" smooth="yes"/>
    </contour>
    <contour>
      <point x="207" y="110" type="line"/>
      <point x="357" y="110" type="line" smooth="yes"/>
      <point x="498" y="110"/>
      <point x="498" y="251" type="qcurve" smooth="yes"/>
      <point x="498" y="439" type="line" smooth="yes"/>
      <point x="498" y="580"/>
      <point x="357" y="580" type="qcurve" smooth="yes"/>
      <point x="207" y="580" type="line"/>
    </contour>
  </outline>
</glyph>
<glyph name="F" format="2">
  <advance width="579"/>
  <unicode hex="0046"/>
  <outline>
    <contour>
      <point x="85" y="0" type="line"/>
      <point x="85" y="690" type="line"/>
      <point x="549" y="690" type="line"/>
      <point x="549" y="580" type="line"/>
      <point x="207" y="580" type="line"/>
      <point x="207" y="383" type="line"/>
      <point x="519" y="383" type="line"/>
      <point x="519" y="273" type="line"/>
      <point x="207" y="273" type="line"/>
      <point x="207" y="0" type="line"/>
    </contour>
  </outline>
</glyph>
<glyph name="G" format="2">
  <advance width="675"/>
  <unicode hex="0047"/>
  <outline>
    <contour>
      <point x="75" y="162" type="qcurve" smooth="yes"/>
      <point x="75" y="528" type="line" smooth="yes"/>
      <point x="75" y="690"/>
      <point x="237" y="690" type="qcurve" smooth="yes"/>
      <point x="531" y="690" type="line"/>
      <point x="590" y="644" type="line"/>
      <point x="590" y="580" type="line"/>
      <point x="241" y="580" type="line" smooth="yes"/>
      <point x="197" y="580"/>
      <point x="197" y="536" type="qcurve" smooth="yes"/>
      <point x="197" y="154" type="line" smooth="yes"/>
      <point x="197" y="110"/>
      <point x="241" y="110" type="qcurve" smooth="yes"/>
      <point x="488" y="110" type="line"/>
      <point x="488" y="303" type="line"/>
      <point x="342" y="303" type="line"/>
      <point x="342" y="413" type="line"/>
      <point x="610" y="413" type="line"/>
      <point x="610" y="0" type="line"/>
      <point x="237" y="0" type="line" smooth="yes"/>
      <point x="75" y="0"/>
    </contour>
  </outline>
</glyph>
<glyph name="J" format="2">
  <advance width="609"/>
  <unicode hex="004A"/>
  <outline>
    <contour>
      <point x="55" y="162" type="qcurve" smooth="yes"/>
      <point x="55" y="285" type="line"/>
      <point x="177" y="285" type="line"/>
      <point x="177" y="154" type="line" smooth="yes"/>
      <point x="177" y="110"/>
      <point x="221" y="110" type="qcurve" smooth="yes"/>
      <point x="364" y="110" type="line" smooth="yes"/>
      <point x="408" y="110"/>
      <point x="408" y="154" type="qcurve" smooth="yes"/>
      <point x="408" y="580" type="line"/>
      <point x="206" y="580" type="line"/>
      <point x="206" y="690" type="line"/>
      <point x="530" y="690" type="line"/>
      <point x="530" y="162" type="line" smooth="yes"/>
      <point x="530" y="0"/>
      <point x="368" y="0" type="qcurve" smooth="yes"/>
      <point x="217" y="0" type="line" smooth="yes"/>
      <point x="55" y="0"/>
    </contour>
  </outline>
</glyph>
<glyph name="K" format="2">
  <advance width="656"/>
  <unicode hex="004B"/>
  <outline>
    <contour>
      <point x="85" y="0" type="line"/>
      <point x="85" y="690" type="line"/>
      <point x="207" y="690" type="line"/>
      <point x="207" y="387" type="line"/>
      <point x="478" y="690" type="line"/>
      <point x="591" y="690" type="line"/>
      <point x="603" y="665" type="line"/>
      <point x="371" y="406" type="line"/>
      <point x="628" y="25" type="line"/>
      <point x="616" y="0" type="line"/>
      <point x="504" y="0" type="line"/>
      <point x="292" y="318" type="line"/>
      <point x="207" y="225" type="line"/>
      <point x="207" y="0" type="line"/>
    </contour>
  </outline>
</glyph>
<glyph name="N" format="2">
  <advance width="731"/>
  <unicode hex="004E"/>
  <outline>
    <contour>
      <point x="85" y="0" type="line"/>
      <point x="85" y="690" type="line"/>
      <point x="218" y="690" type="line"/>
      <point x="525" y="197" type="line"/>
      <point x="525" y="690" type="line"/>
      <point x="646" y="690" type="line"/>
      <point x="646" y="0" type="line"/>
      <point x="514" y="0" type="line"/>
      <point x="207" y="493" type="line"/>
      <point x="207" y="0" type="line"/>
    </contour>
  </outline>
</glyph>
<glyph name="O" format="2">
  <advance width="705"/>
  <unicode hex="004F"/>
  <outline>
    <contour>
      <point x="75" y="162" type="qcurve" smooth="yes"/>
      <point x="75" y="528" type="line" smooth="yes"/>
      <point x="75" y="690"/>
      <point x="237" y="690" type="qcurve" smooth="yes"/>
      <point x="468" y="690" type="line" smooth="yes"/>
      <point x="630" y="690"/>
      <point x="630" y="528" type="qcurve" smooth="yes"/>
      <point x="630" y="162" type="line" smooth="yes"/>
      <point x="630" y="0"/>
      <point x="468" y="0" type="qcurve" smooth="yes"/>
      <point x="237" y="0" type="line" smooth="yes"/>
      <point x="75" y="0"/>
    </contour>
    <contour>
      <point x="197" y="154" type="line" smooth="yes"/>
      <point x="197" y="110"/>
      <point x="241" y="110" type="qcurve" smooth="yes"/>
      <point x="464" y="110" type="line" smooth="yes"/>
      <point x="508" y="110"/>
      <point x="508" y="154" type="qcurve" smooth="yes"/>
      <point x="508" y="536" type="line" smooth="yes"/>
      <point x="508" y="580"/>
      <point x="464" y="580" type="qcurve" smooth="yes"/>
      <point x="241" y="580" type="line" smooth="yes"/>
      <point x="197" y="580"/>
      <point x="197" y="536" type="qcurve" smooth="yes"/>
    </contour>
  </outline>
</glyph>
<glyph name="Q" format="2">
  <advance width="705"/>
  <unicode hex="0051"/>
  <outline>
    <contour>
      <point x="75" y="162" type="qcurve" smooth="yes"/>
      <point x="75" y="528" type="line" smooth="yes"/>
      <point x="75" y="690"/>
      <point x="237" y="690" type="qcurve" smooth="yes"/>
      <point x="468" y="690" type="line" smooth="yes"/>
      <point x="630" y="690"/>
      <point x="630" y="528" type="qcurve" smooth="yes"/>
      <point x="630" y="162" type="line" smooth="yes"/>
      <point x="630" y="24"/>
      <point x="512" y="4" type="qcurve"/>
      <point x="577" y="-124" type="line"/>
      <point x="562" y="-150" type="line"/>
      <point x="457" y="-150" type="line"/>
      <point x="381" y="0" type="line"/>
      <point x="237" y="0" type="line" smooth="yes"/>
      <point x="75" y="0"/>
    </contour>
    <contour>
      <point x="197" y="154" type="line" smooth="yes"/>
      <point x="197" y="110"/>
      <point x="241" y="110" type="qcurve" smooth="yes"/>
      <point x="464" y="110" type="line" smooth="yes"/>
      <point x="508" y="110"/>
      <point x="508" y="154" type="qcurve" smooth="yes"/>
      <point x="508" y="536" type="line" smooth="yes"/>
      <point x="508" y="580"/>
      <point x="464" y="580" type="qcurve" smooth="yes"/>
      <point x="241" y="580" type="line" smooth="yes"/>
      <point x="197" y="580"/>
      <point x="197" y="536" type="qcurve" smooth="yes"/>
    </contour>
  </outline>
</glyph>
<glyph name="S" format="2">
  <advance width="585"/>
  <unicode hex="0053"/>
  <outline>
    <contour>
      <point x="55" y="46" type="line"/>
      <point x="55" y="110" type="line"/>
      <point x="364" y="110" type="line" smooth="yes"/>
      <point x="408" y="110"/>
      <point x="408" y="154" type="qcurve" smooth="yes"/>
      <point x="408" y="230" type="line" smooth="yes"/>
      <point x="408" y="269"/>
      <point x="374" y="276" type="qcurve" smooth="yes"/>
      <point x="171" y="316" type="line" smooth="yes"/>
      <point x="55" y="340"/>
      <point x="55" y="473" type="qcurve" smooth="yes"/>
      <point x="55" y="528" type="line" smooth="yes"/>
      <point x="55" y="690"/>
      <point x="217" y="690" type="qcurve" smooth="yes"/>
      <point x="451" y="690" type="line"/>
      <point x="510" y="644" type="line"/>
      <point x="510" y="580" type="line"/>
      <point x="221" y="580" type="line" smooth="yes"/>
      <point x="177" y="580"/>
      <point x="177" y="536" type="qcurve" smooth="yes"/>
      <point x="177" y="470" type="line" smooth="yes"/>
      <point x="177" y="431"/>
      <point x="211" y="424" type="qcurve" smooth="yes"/>
      <point x="414" y="384" type="line" smooth="yes"/>
      <point x="530" y="360"/>
      <point x="530" y="228" type="qcurve" smooth="yes"/>
      <point x="530" y="162" type="line" smooth="yes"/>
      <point x="530" y="0"/>
      <point x="368" y="0" type="qcurve" smooth="yes"/>
      <point x="114" y="0" type="line"/>
    </contour>
  </outline>
</glyph>
<glyph name="X" format="2">
  <advance width="633"/>
  <unicode hex="0058"/>
  <outline>
    <contour>
      <point x="29" y="25" type="line"/>
      <point x="249" y="355" type="line"/>
      <point x="42" y="665" type="line"/>
      <point x="54" y="690" type="line"/>
      <point x="160" y="690" type="line"/>
      <point x="316" y="452" type="line"/>
      <point x="472" y="690" type="line"/>
      <point x="579" y="690" type="line"/>
      <point x="591" y="665" type="line"/>
      <point x="384" y="355" type="line"/>
      <point x="604" y="25" type="line"/>
      <point x="592" y="0" type="line"/>
      <point x="485" y="0" type="line"/>
      <point x="316" y="258" type="line"/>
      <point x="147" y="0" type="line"/>
      <point x="41" y="0" type="line"/>
    </contour>
  </outline>
</glyph>
<glyph name="Z" format="2">
  <advance width="605"/>
  <unicode hex="005A"/>
  <outline>
    <contour>
      <point x="45" y="0" type="line"/>
      <point x="45" y="95" type="line"/>
      <point x="397" y="580" type="line"/>
      <point x="55" y="580" type="line"/>
      <point x="55" y="690" type="line"/>
      <point x="550" y="690" type="line"/>
      <point x="550" y="595" type="line"/>
      <point x="198" y="110" type="line"/>
      <point x="560" y="110" type="line"/>
      <point x="560" y="0" type="line"/>
    </contour>
  </outline>
</glyph>
<glyph name="bracketleft" format="2">
  <advance width="366"/>
  <unicode hex="005B"/>
  <outline>
    <contour>
      <point x="85" y="-180" type="line"/>
      <point x="85" y="760" type="line"/>
      <point x="336" y="760" type="line"/>
      <point x="336" y="658" type="line"/>
      <point x="202" y="658" type="line"/>
      <point x="202" y="-78" type="line"/>
      <point x="336" y="-78" type="line"/>
      <point x="336" y="-180" type="line"/>
    </contour>
  </outline>
</glyph>
<glyph name="asciicircum" format="2">
  <advance width="555"/>
  <unicode hex="005E"/>
  <outline>
    <contour>
      <point x="35" y="352" type="line"/>
      <point x="222" y="690" type="line"/>
      <point x="334" y="690" type="line"/>
      <point x="520" y="352" type="line"/>
      <point x="431" y="302" type="line"/>
      <point x="278" y="583" type="line"/>
      <point x="124" y="302" type="line"/>
    </contour>
  </outline>
</glyph>
<glyph name="c" format="2">
  <advance width="513"/>
  <unicode hex="0063"/>
  <outline>
    <contour>
      <point x="67" y="158" type="qcurve" smooth="yes"/>
      <point x="67" y="367" type="line" smooth="yes"/>
      <point x="67" y="525"/>
      <point x="225" y="525" type="qcurve" smooth="yes"/>
      <point x="414" y="525" type="line"/>
      <point x="467" y="486" type="line"/>
      <point x="467" y="424" type="line"/>
      <point x="230" y="424" type="line" smooth="yes"/>
      <point x="184" y="424"/>
      <point x="184" y="377" type="qcurve" smooth="yes"/>
      <point x="184" y="148" type="line" smooth="yes"/>
      <point x="184" y="102"/>
      <point x="230" y="102" type="qcurve" smooth="yes"/>
      <point x="467" y="102" type="line"/>
      <point x="467" y="39" type="line"/>
      <point x="414" y="0" type="line"/>
      <point x="225" y="0" type="line" smooth="yes"/>
      <point x="67" y="0"/>
    </contour>
  </outline>
</glyph>
<glyph name="f" format="2">
  <advance width="400"/>
  <unicode hex="0066"/>
  <outline>
    <contour>
      <point x="75" y="0" type="line"/>
      <point x="75" y="582" type="line" smooth="yes"/>
      <point x="75" y="740"/>
      <point x="233" y="740" type="qcurve" smooth="yes"/>
      <point x="328" y="740" type="line"/>
      <point x="380" y="701" type="line"/>
      <point x="380" y="638" type="line"/>
      <point x="238" y="638" type="line" smooth="yes"/>
      <point x="192" y="638"/>
      <point x="192" y="592" type="qcurve" smooth="yes"/>
      <point x="192" y="525" type="line"/>
      <point x="370" y="525" type="line"/>
      <point x="370" y="424" type="line"/>
      <point x="192" y="424" type="line"/>
      <point x="192" y="0" type="line"/>
    </contour>
  </outline>
</glyph>
<glyph name="i" format="2">
  <advance width="266"/>
  <unicode hex="0069"/>
  <outline>
    <contour>
      <point x="73" y="614" type="line"/>
      <point x="73" y="732" type="line"/>
      <point x="194" y="732" type="line"/>
      <point x="194" y="614" type="line"/>
    </contour>
    <contour>
      <point x="75" y="0" type="line"/>
      <point x="75" y="525" type="line"/>
      <point x="192" y="525" type="line"/>
      <point x="192" y="0" type="line"/>
    </contour>
  </outline>
</glyph>
<glyph name="m" format="2">
  <advance width="901"/>
  <unicode hex="006D"/>
  <outline>
    <contour>
      <point x="75" y="0" type="line"/>
      <point x="75" y="525" type="line"/>
      <point x="673" y="525" type="line" smooth="yes"/>
      <point x="830" y="525"/>
      <point x="830" y="367" type="qcurve" smooth="yes"/>
      <point x="830" y="0" type="line"/>
      <point x="714" y="0" type="line"/>
      <point x="714" y="377" type="line" smooth="yes"/>
      <point x="714" y="424"/>
      <point x="667" y="424" type="qcurve" smooth="yes"/>
      <point x="511" y="424" type="line"/>
      <point x="511" y="0" type="line"/>
      <point x="394" y="0" type="line"/>
      <point x="394" y="424" type="line"/>
      <point x="192" y="424" type="line"/>
      <point x="192" y="0" type="line"/>
    </contour>
  </outline>
</glyph>
<glyph name="r" format="2">
  <advance width="392"/>
  <unicode hex="0072"/>
  <outline>
    <contour>
      <point x="71" y="0" type="line"/>
      <point x="71" y="460" type="line"/>
      <point x="107" y="525"/>
      <point x="209" y="525" type="qcurve" smooth="yes"/>
      <point x="314" y="525" type="line"/>
      <point x="366" y="486" type="line"/>
      <point x="366" y="424" type="line"/>
      <point x="229" y="424" type="line" smooth="yes"/>
      <point x="200" y="424"/>
      <point x="188" y="409" type="qcurve"/>
      <point x="188" y="0" type="line"/>
    </contour>
  </outline>
</glyph>
<glyph name="u" format="2">
  <advance width="591"/>
  <unicode hex="0075"/>
  <outline>
    <contour>
      <point x="71" y="158" type="qcurve" smooth="yes"/>
      <point x="71" y="525" type="line"/>
      <point x="188" y="525" type="line"/>
      <point x="188" y="148" type="line" smooth="yes"/>
      <point x="188" y="102"/>
      <point x="234" y="102" type="qcurve" smooth="yes"/>
      <point x="400" y="102" type="line"/>
      <point x="400" y="525" type="line"/>
      <point x="516" y="525" type="line"/>
      <point x="516" y="0" type="line"/>
      <point x="229" y="0" type="line" smooth="yes"/>
      <point x="71" y="0"/>
    </contour>
  </outline>
</glyph>
<glyph name="x" format="2">
  <advance width="543"/>
  <unicode hex="0078"/>
  <outline>
    <contour>
      <point x="29" y="20" type="line"/>
      <point x="206" y="266" type="line"/>
      <point x="34" y="505" type="line"/>
      <point x="44" y="525" type="line"/>
      <point x="151" y="525" type="line"/>
      <point x="271" y="353" type="line"/>
      <point x="391" y="525" type="line"/>
      <point x="499" y="525" type="line"/>
      <point x="508" y="505" type="line"/>
      <point x="337" y="266" type="line"/>
      <point x="514" y="20" type="line"/>
      <point x="504" y="0" type="line"/>
      <point x="397" y="0" type="line"/>
      <point x="271" y="179" type="line"/>
      <point x="146" y="0" type="line"/>
      <point x="38" y="0" type="line"/>
    </contour>
  </outline>
</glyph>
<glyph name="y" format="2">
  <advance width="543"/>
  <unicode hex="0079"/>
  <outline>
    <contour>
      <point x="19" y="507" type="line"/>
      <point x="31" y="525" type="line"/>
      <point x="131" y="525" type="line"/>
      <point x="264" y="102" type="line"/>
      <point x="278" y="102" type="line"/>
      <point x="411" y="525" type="line"/>
      <point x="512" y="525" type="line"/>
      <point x="524" y="507" type="line"/>
      <point x="294" y="-200" type="line"/>
      <point x="194" y="-200" type="line"/>
      <point x="182" y="-182" type="line"/>
      <point x="244" y="0" type="line"/>
      <point x="184" y="0" type="line"/>
    </contour>
  </outline>
</glyph>
<glyph name="z" format="2">
  <advance width="515"/>
  <unicode hex="007A"/>
  <outline>
    <contour>
      <point x="45" y="0" type="line"/>
      <point x="45" y="88" type="line"/>
      <point x="311" y="424" type="line"/>
      <point x="55" y="424" type="line"/>
      <point x="55" y="525" type="line"/>
      <point x="460" y="525" type="line"/>
      <point x="460" y="437" type="line"/>
      <point x="194" y="102" type="line"/>
      <point x="470" y="102" type="line"/>
      <point x="470" y="0" type="line"/>
    </contour>
  </outline>
</glyph>
<glyph name="bar" format="2">
  <advance width="298"/>
  <unicode hex="007C"/>
  <outline>
    <contour>
      <point x="96" y="-200" type="line"/>
      <point x="96" y="740" type="line"/>
      <point x="202" y="740" type="line"/>
      <point x="202" y="-200" type="line"/>
    </contour>
  </outline>
</glyph>
<glyph name="yen" format="2">
  <advance width="578"/>
  <unicode hex="00A5"/>
  <outline>
    <contour>
      <point x="17" y="666" type="line"/>
      <point x="32" y="690" type="line"/>
      <point x="135" y="690" type="line"/>
      <point x="289" y="396" type="line"/>
      <point x="443" y="690" type="line"/>
      <point x="546" y="690" type="line"/>
      <point x="561" y="666" type="line"/>
      <point x="384" y="334" type="line"/>
      <point x="487" y="334" type="line"/>
      <point x="487" y="253" type="line"/>
      <point x="350" y="253" type="line"/>
      <point x="350" y="187" type="line"/>
      <point x="487" y="187" type="line"/>
      <point x="487" y="106" type="line"/>
      <point x="350" y="106" type="line"/>
      <point x="350" y="0" type="line"/>
      <point x="228" y="0" type="line"/>
      <point x="228" y="106" type="line"/>
      <point x="91" y="106" type="line"/>
      <point x="91" y="187" type="line"/>
      <point x="228" y="187" type="line"/>
      <point x="228" y="253" type="line"/>
      <point x="91" y="253" type="line"/>
      <point x="91" y="334" type="line"/>
      <point x="194" y="334" type="line"/>
    </contour>
  </outline>
</glyph>
<glyph name="brokenbar" format="2">
  <advance width="298"/>
  <unicode hex="00A6"/>
  <outline>
    <contour>
      <point x="96" y="174" type="line"/>
      <point x="202" y="174" type="line"/>
      <point x="202" y="-200" type="line"/>
      <point x="96" y="-200" type="line"/>
    </contour>
    <contour>
      <point x="96" y="366" type="line"/>
      <point x="96" y="740" type="line"/>
      <point x="202" y="740" type="line"/>
      <point x="202" y="366" type="line"/>
    </contour>
  </outline>
</glyph>
<glyph name="section" format="2">
  <advance width="543"/>
  <unicode hex="00A7"/>
  <outline>
    <contour>
      <point x="75" y="2" type="line"/>
      <point x="305" y="2" type="line" smooth="yes"/>
      <point x="352" y="2"/>
      <point x="352" y="51" type="qcurve" smooth="yes"/>
      <point x="352" y="102"/>
      <point x="311" y="109" type="qcurve" smooth="yes"/>
      <point x="199" y="127" type="line" smooth="yes"/>
      <point x="75" y="148"/>
      <point x="75" y="268" type="qcurve" smooth="yes"/>
      <point x="75" y="371" type="line"/>
      <point x="123" y="419" type="line"/>
      <point x="75" y="456"/>
      <point x="75" y="533" type="qcurve" smooth="yes"/>
      <point x="75" y="690"/>
      <point x="233" y="690" type="qcurve" smooth="yes"/>
      <point x="392" y="690" type="line"/>
      <point x="444" y="651" type="line"/>
      <point x="444" y="588" type="line"/>
      <point x="238" y="588" type="line" smooth="yes"/>
      <point x="191" y="588"/>
      <point x="191" y="539" type="qcurve" smooth="yes"/>
      <point x="191" y="488"/>
      <point x="232" y="481" type="qcurve" smooth="yes"/>
      <point x="344" y="463" type="line" smooth="yes"/>
      <point x="468" y="442"/>
      <point x="468" y="322" type="qcurve" smooth="yes"/>
      <point x="468" y="219" type="line"/>
      <point x="420" y="171" type="line"/>
      <point x="468" y="134"/>
      <point x="468" y="57" type="qcurve" smooth="yes"/>
      <point x="468" y="-100"/>
      <point x="311" y="-100" type="qcurve" smooth="yes"/>
      <point x="128" y="-100" type="line"/>
      <point x="75" y="-61" type="line"/>
    </contour>
    <contour>
      <point x="191" y="274" type="line" smooth="yes"/>
      <point x="191" y="227"/>
      <point x="232" y="220" type="qcurve" smooth="yes"/>
      <point x="352" y="200" type="line"/>
      <point x="352" y="316" type="line" smooth="yes"/>
      <point x="352" y="363"/>
      <point x="311" y="370" type="qcurve" smooth="yes"/>
      <point x="191" y="390" type="line"/>
    </contour>
  </outline>
</glyph>
<glyph name="logicalnot" format="2">
  <advance width="578"/>
  <unicode hex="00AC"/>
  <outline>
    <contour>
      <point x="61" y="335" type="line"/>
      <point x="61" y="435" type="line"/>
      <point x="517" y="435" type="line"/>
      <point x="517" y="147" type="line"/>
      <point x="411" y="147" type="line"/>
      <point x="411" y="335" type="line"/>
    </contour>
  </outline>
</glyph>
<glyph name="registered" format="2">
  <advance width="843"/>
  <unicode hex="00AE"/>
  <outline>
    <contour>
      <point x="75" y="109" type="qcurve" smooth="yes"/>
      <point x="75" y="581" type="line" smooth="yes"/>
      <point x="75" y="690"/>
      <point x="184" y="690" type="qcurve" smooth="yes"/>
      <point x="658" y="690" type="line" smooth="yes"/>
      <point x="768" y="690"/>
      <point x="768" y="581" type="qcurve" smooth="yes"/>
      <point x="768" y="109" type="line" smooth="yes"/>
      <point x="768" y="0"/>
      <point x="658" y="0" type="qcurve" smooth="yes"/>
      <point x="184" y="0" type="line" smooth="yes"/>
      <point x="75" y="0"/>
    </contour>
    <contour>
      <point x="161" y="97" type="line" smooth="yes"/>
      <point x="161" y="78"/>
      <point x="181" y="78" type="qcurve" smooth="yes"/>
      <point x="662" y="78" type="line" smooth="yes"/>
      <point x="681" y="78"/>
      <point x="681" y="97" type="qcurve" smooth="yes"/>
      <point x="681" y="593" type="line" smooth="yes"/>
      <point x="681" y="612"/>
      <point x="662" y="612" type="qcurve" smooth="yes"/>
      <point x="181" y="612" type="line" smooth="yes"/>
      <point x="161" y="612"/>
      <point x="161" y="593" type="qcurve" smooth="yes"/>
    </contour>
    <contour>
      <point x="275" y="155" type="line"/>
      <point x="275" y="535" type="line"/>
      <point x="460" y="535" type="line" smooth="yes"/>
      <point x="574" y="535"/>
      <point x="574" y="421" type="qcurve" smooth="yes"/>
      <point x="574" y="393" type="line" smooth="yes"/>
      <point x="574" y="316"/>
      <point x="521" y="292" type="qcurve"/>
      <point x="580" y="175" type="line"/>
      <point x="569" y="155" type="line"/>
      <point x="490" y="155" type="line"/>
      <point x="427" y="279" type="line"/>
      <point x="366" y="279" type="line"/>
      <point x="366" y="155" type="line"/>
    </contour>
    <contour>
      <point x="366" y="362" type="line"/>
      <point x="463" y="362" type="line" smooth="yes"/>
      <point x="482" y="362"/>
      <point x="482" y="382" type="qcurve" smooth="yes"/>
      <point x="482" y="432" type="line" smooth="yes"/>
      <point x="482" y="452"/>
      <point x="463" y="452" type="qcurve" smooth="yes"/>
      <point x="366" y="452" type="line"/>
    </contour>
  </outline>
</glyph>
<glyph name="plusminus" format="2">
  <advance width="578"/>
  <unicode hex="00B1"/>
  <outline>
    <contour>
      <point x="61" y="0" type="line"/>
      <point x="61" y="100" type="line"/>
      <point x="517" y="100" type="line"/>
      <point x="517" y="0" type="line"/>
    </contour>
    <contour>
      <point x="61" y="317" type="line"/>
      <point x="61" y="418" type="line"/>
      <point x="236" y="418" type="line"/>
      <point x="236" y="590" type="line"/>
      <point x="342" y="590" type="line"/>
      <point x="342" y="418" type="line"/>
      <point x="517" y="418" type="line"/>
      <point x="517" y="317" type="line"/>
      <point x="342" y="317" type="line"/>
      <point x="342" y="145" type="line"/>
      <point x="236" y="145" type="line"/>
      <point x="236" y="317" type="line"/>
    </contour>
  </outline>
</glyph>
<glyph name="uni00B3" format="2">
  <advance width="364"/>
  <unicode hex="00B3"/>
  <outline>
    <contour>
      <point x="42" y="309" type="line"/>
      <point x="42" y="359" type="line"/>
      <point x="216" y="359" type="line" smooth="yes"/>
      <point x="236" y="359"/>
      <point x="236" y="379" type="qcurve" smooth="yes"/>
      <point x="236" y="426" type="line" smooth="yes"/>
      <point x="236" y="446"/>
      <point x="216" y="446" type="qcurve" smooth="yes"/>
      <point x="86" y="446" type="line"/>
      <point x="86" y="529" type="line"/>
      <point x="216" y="529" type="line" smooth="yes"/>
      <point x="236" y="529"/>
      <point x="236" y="548" type="qcurve" smooth="yes"/>
      <point x="236" y="587" type="line" smooth="yes"/>
      <point x="236" y="607"/>
      <point x="216" y="607" type="qcurve" smooth="yes"/>
      <point x="48" y="607" type="line"/>
      <point x="48" y="657" type="line"/>
      <point x="90" y="690" type="line"/>
      <point x="214" y="690" type="line" smooth="yes"/>
      <point x="328" y="690"/>
      <point x="328" y="576" type="qcurve" smooth="yes"/>
      <point x="328" y="555" type="line" smooth="yes"/>
      <point x="328" y="528"/>
      <point x="311" y="511" type="qcurve" smooth="yes"/>
      <point x="288" y="488" type="line"/>
      <point x="311" y="465" type="line" smooth="yes"/>
      <point x="328" y="448"/>
      <point x="328" y="421" type="qcurve" smooth="yes"/>
      <point x="328" y="390" type="line" smooth="yes"/>
      <point x="328" y="276"/>
      <point x="214" y="276" type="qcurve" smooth="yes"/>
      <point x="84" y="276" type="line"/>
    </contour>
  </outline>
</glyph>
<glyph name="mu" format="2">
  <advance width="591"/>
  <unicode hex="00B5"/>
  <outline>
    <contour>
      <point x="75" y="-200" type="line"/>
      <point x="75" y="525" type="line"/>
      <point x="192" y="525" type="line"/>
      <point x="192" y="102" type="line"/>
      <point x="357" y="102" type="line" smooth="yes"/>
      <point x="404" y="102"/>
      <point x="404" y="148" type="qcurve" smooth="yes"/>
      <point x="404" y="525" type="line"/>
      <point x="520" y="525" type="line"/>
      <point x="520" y="158" type="line" smooth="yes"/>
      <point x="520" y="0"/>
      <point x="363" y="0" type="qcurve" smooth="yes"/>
      <point x="192" y="0" type="line"/>
      <point x="192" y="-200" type="line"/>
    </contour>
  </outline>
</glyph>
<glyph name="paragraph" format="2">
  <advance width="625"/>
  <unicode hex="00B6"/>
  <outline>
    <contour>
      <point x="65" y="371" type="qcurve" smooth="yes"/>
      <point x="65" y="540" type="line" smooth="yes"/>
      <point x="65" y="690"/>
      <point x="215" y="690" type="qcurve" smooth="yes"/>
      <point x="344" y="690" type="line"/>
      <point x="344" y="221" type="line"/>
      <point x="215" y="221" type="line" smooth="yes"/>
      <point x="65" y="221"/>
    </contour>
    <contour>
      <point x="414" y="-170" type="line"/>
      <point x="414" y="690" type="line"/>
      <point x="530" y="690" type="line"/>
      <point x="530" y="-170" type="line"/>
    </contour>
  </outline>
</glyph>
<glyph name="questiondown" format="2">
  <advance width="495"/>
  <unicode hex="00BF"/>
  <outline>
    <contour>
      <point x="50" y="-3" type="qcurve" smooth="yes"/>
      <point x="50" y="84" type="line" smooth="yes"/>
      <point x="50" y="246"/>
      <point x="212" y="246" type="qcurve" smooth="yes"/>
      <point x="234" y="246" type="line"/>
      <point x="234" y="307" type="line"/>
      <point x="356" y="307" type="line"/>
      <point x="356" y="136" type="line"/>
      <point x="216" y="136" type="line" smooth="yes"/>
      <point x="172" y="136"/>
      <point x="172" y="92" type="qcurve" smooth="yes"/>
      <point x="172" y="-11" type="line" smooth="yes"/>
      <point x="172" y="-55"/>
      <point x="216" y="-55" type="qcurve" smooth="yes"/>
      <point x="475" y="-55" type="line"/>
      <point x="475" y="-119" type="line"/>
      <point x="416" y="-165" type="line"/>
      <point x="212" y="-165" type="line" smooth="yes"/>
      <point x="50" y="-165"/>
    </contour>
    <contour>
      <point x="230" y="394" type="line"/>
      <point x="230" y="525" type="line"/>
      <point x="361" y="525" type="line"/>
      <point x="361" y="394" type="line"/>
    </contour>
  </outline>
</glyph>
<glyph name="AE" format="2">
  <advance width="914"/>
  <unicode hex="00C6"/>
  <outline>
    <contour>
      <point x="19" y="24" type="line"/>
      <point x="232" y="690" type="line"/>
      <point x="864" y="690" type="line"/>
      <point x="864" y="580" type="line"/>
      <point x="541" y="580" type="line"/>
      <point x="541" y="413" type="line"/>
      <point x="834" y="413" type="line"/>
      <point x="834" y="303" type="line"/>
      <point x="541" y="303" type="line"/>
      <point x="541" y="110" type="line"/>
      <point x="864" y="110" type="line"/>
      <point x="864" y="0" type="line"/>
      <point x="419" y="0" type="line"/>
      <point x="419" y="153" type="line"/>
      <point x="183" y="153" type="line"/>
      <point x="136" y="0" type="line"/>
      <point x="35" y="0" type="line"/>
    </contour>
    <contour>
      <point x="217" y="263" type="line"/>
      <point x="419" y="263" type="line"/>
      <point x="419" y="580" type="line"/>
      <point x="317" y="580" type="line"/>
    </contour>
  </outline>
</glyph>
<glyph name="Eth" format="2">
  <advance width="699"/>
  <unicode hex="00D0"/>
  <outline>
    <contour>
      <point x="20" y="297" type="line"/>
      <point x="20" y="393" type="line"/>
      <point x="99" y="393" type="line"/>
      <point x="99" y="690" type="line"/>
      <point x="391" y="690" type="line" smooth="yes"/>
      <point x="634" y="690"/>
      <point x="634" y="447" type="qcurve" smooth="yes"/>
      <point x="634" y="243" type="line" smooth="yes"/>
      <point x="634" y="0"/>
      <point x="391" y="0" type="qcurve" smooth="yes"/>
      <point x="99" y="0" type="line"/>
      <point x="99" y="297" type="line"/>
    </contour>
    <contour>
      <point x="221" y="110" type="line"/>
      <point x="391" y="110" type="line" smooth="yes"/>
      <point x="512" y="110"/>
      <point x="512" y="231" type="qcurve" smooth="yes"/>
      <point x="512" y="459" type="line" smooth="yes"/>
      <point x="512" y="580"/>
      <point x="391" y="580" type="qcurve" smooth="yes"/>
      <point x="221" y="580" type="line"/>
      <point x="221" y="393" type="line"/>
      <point x="366" y="393" type="line"/>
      <point x="366" y="297" type="line"/>
      <point x="221" y="297" type="line"/>
    </contour>
  </outline>
</glyph>
<glyph name="multiply" format="2">
  <advance width="578"/>
  <unicode hex="00D7"/>
  <outline>
    <contour>
      <point x="73" y="191" type="line"/>
      <point x="218" y="335" type="line"/>
      <point x="73" y="479" type="line"/>
      <point x="145" y="551" type="line"/>
      <point x="289" y="406" type="line"/>
      <point x="433" y="551" type="line"/>
      <point x="505" y="479" type="line"/>
      <point x="360" y="335" type="line"/>
      <point x="505" y="191" type="line"/>
      <point x="433" y="119" type="line"/>
      <point x="289" y="264" type="line"/>
      <point x="145" y="119" type="line"/>
    </contour>
  </outline>
</glyph>
<glyph name="Oslash" format="2">
  <advance width="705"/>
  <unicode hex="00D8"/>
  <outline>
    <contour>
      <point x="75" y="162" type="qcurve" smooth="yes"/>
      <point x="75" y="528" type="line" smooth="yes"/>
      <point x="75" y="690"/>
      <point x="237" y="690" type="qcurve" smooth="yes"/>
      <point x="468" y="690" type="line" smooth="yes"/>
      <point x="630" y="690"/>
      <point x="630" y="528" type="qcurve" smooth="yes"/>
      <point x="630" y="162" type="line" smooth="yes"/>
      <point x="630" y="0"/>
      <point x="468" y="0" type="qcurve" smooth="yes"/>
      <point x="237" y="0" type="line" smooth="yes"/>
      <point x="75" y="0"/>
    </contour>
    <contour>
      <point x="197" y="264" type="line"/>
      <point x="507" y="544" type="line"/>
      <point x="504" y="580"/>
      <point x="464" y="580" type="qcurve" smooth="yes"/>
      <point x="241" y="580" type="line" smooth="yes"/>
      <point x="197" y="580"/>
      <point x="197" y="536" type="qcurve" smooth="yes"/>
    </contour>
    <contour>
      <point x="198" y="146" type="line"/>
      <point x="201" y="110"/>
      <point x="241" y="110" type="qcurve" smooth="yes"/>
      <point x="464" y="110" type="line" smooth="yes"/>
      <point x="508" y="110"/>
      <point x="508" y="154" type="qcurve" smooth="yes"/>
      <point x="508" y="426" type="line"/>
    </contour>
  </outline>
</glyph>
<glyph name="Thorn" format="2">
  <advance width="635"/>
  <unicode hex="00DE"/>
  <outline>
    <contour>
      <point x="85" y="0" type="line"/>
      <point x="85" y="690" type="line"/>
      <point x="207" y="690" type="line"/>
      <point x="207" y="583" type="line"/>
      <point x="418" y="583" type="line" smooth="yes"/>
      <point x="580" y="583"/>
      <point x="580" y="420" type="qcurve" smooth="yes"/>
      <point x="580" y="284" type="line" smooth="yes"/>
      <point x="580" y="121"/>
      <point x="418" y="121" type="qcurve" smooth="yes"/>
      <point x="207" y="121" type="line"/>
      <point x="207" y="0" type="line"/>
    </contour>
    <contour>
      <point x="207" y="231" type="line"/>
      <point x="414" y="231" type="line" smooth="yes"/>
      <point x="458" y="231"/>
      <point x="458" y="275" type="qcurve" smooth="yes"/>
      <point x="458" y="429" type="line" smooth="yes"/>
      <point x="458" y="473"/>
      <point x="414" y="473" type="qcurve" smooth="yes"/>
      <point x="207" y="473" type="line"/>
    </contour>
  </outline>
</glyph>
<glyph name="germandbls" format="2">
  <advance width="613"/>
  <unicode hex="00DF"/>
  <outline>
    <contour>
      <point x="75" y="0" type="line"/>
      <point x="75" y="582" type="line" smooth="yes"/>
      <point x="75" y="740"/>
      <point x="233" y="740" type="qcurve" smooth="yes"/>
      <point x="369" y="740" type="line" smooth="yes"/>
      <point x="526" y="740"/>
      <point x="526" y="582" type="qcurve" smooth="yes"/>
      <point x="526" y="491" type="line" smooth="yes"/>
      <point x="526" y="457"/>
      <point x="506" y="433" type="qcurve" smooth="yes"/>
      <point x="471" y="391" type="line"/>
      <point x="513" y="356" type="line" smooth="yes"/>
      <point x="546" y="328"/>
      <point x="546" y="276" type="qcurve" smooth="yes"/>
      <point x="546" y="158" type="line" smooth="yes"/>
      <point x="546" y="0"/>
      <point x="389" y="0" type="qcurve" smooth="yes"/>
      <point x="316" y="0" type="line"/>
      <point x="264" y="39" type="line"/>
      <point x="264" y="102" type="line"/>
      <point x="384" y="102" type="line" smooth="yes"/>
      <point x="430" y="102"/>
      <point x="430" y="148" type="qcurve" smooth="yes"/>
      <point x="430" y="288" type="line" smooth="yes"/>
      <point x="430" y="334"/>
      <point x="384" y="334" type="qcurve" smooth="yes"/>
      <point x="274" y="334" type="line"/>
      <point x="274" y="436" type="line"/>
      <point x="364" y="436" type="line" smooth="yes"/>
      <point x="410" y="436"/>
      <point x="410" y="482" type="qcurve" smooth="yes"/>
      <point x="410" y="592" type="line" smooth="yes"/>
      <point x="410" y="638"/>
      <point x="364" y="638" type="qcurve" smooth="yes"/>
      <point x="238" y="638" type="line" smooth="yes"/>
      <point x="192" y="638"/>
      <point x="192" y="592" type="qcurve" smooth="yes"/>
      <point x="192" y="0" type="line"/>
    </contour>
  </outline>
</glyph>
<glyph name="ae" format="2">
  <advance width="866"/>
  <unicode hex="00E6"/>
  <outline>
    <contour>
      <point x="205" y="0" type="line" smooth="yes"/>
      <point x="47" y="0"/>
      <point x="47" y="312"/>
      <point x="205" y="312" type="qcurve" smooth="yes"/>
      <point x="358" y="312" type="line"/>
      <point x="358" y="377" type="line" smooth="yes"/>
      <point x="358" y="424"/>
      <point x="312" y="424" type="qcurve" smooth="yes"/>
      <point x="101" y="424" type="line"/>
      <point x="101" y="486" type="line"/>
      <point x="153" y="525" type="line"/>
      <point x="306" y="525" type="line" smooth="yes"/>
      <point x="376" y="525"/>
      <point x="416" y="485" type="qcurve"/>
      <point x="456" y="525"/>
      <point x="527" y="525" type="qcurve" smooth="yes"/>
      <point x="642" y="525" type="line" smooth="yes"/>
      <point x="799" y="525"/>
      <point x="799" y="367" type="qcurve" smooth="yes"/>
      <point x="799" y="217" type="line"/>
      <point x="475" y="217" type="line"/>
      <point x="475" y="148" type="line" smooth="yes"/>
      <point x="475" y="102"/>
      <point x="521" y="102" type="qcurve" smooth="yes"/>
      <point x="779" y="102" type="line"/>
      <point x="779" y="39" type="line"/>
      <point x="727" y="0" type="line"/>
      <point x="527" y="0" type="line" smooth="yes"/>
      <point x="456" y="0"/>
      <point x="416" y="40" type="qcurve"/>
      <point x="376" y="0"/>
      <point x="306" y="0" type="qcurve" smooth="yes"/>
    </contour>
    <contour>
      <point x="164" y="148" type="line" smooth="yes"/>
      <point x="164" y="102"/>
      <point x="210" y="102" type="qcurve" smooth="yes"/>
      <point x="312" y="102" type="line" smooth="yes"/>
      <point x="358" y="102"/>
      <point x="358" y="148" type="qcurve" smooth="yes"/>
      <point x="358" y="218" type="line"/>
      <point x="210" y="218" type="line" smooth="yes"/>
      <point x="164" y="218"/>
      <point x="164" y="172" type="qcurve" smooth="yes"/>
    </contour>
    <contour>
      <point x="475" y="311" type="line"/>
      <point x="683" y="311" type="line"/>
      <point x="683" y="377" type="line" smooth="yes"/>
      <point x="683" y="424"/>
      <point x="637" y="424" type="qcurve" smooth="yes"/>
      <point x="521" y="424" type="line" smooth="yes"/>
      <point x="475" y="424"/>
      <point x="475" y="377" type="qcurve" smooth="yes"/>
    </contour>
  </outline>
</glyph>
<glyph name="divide" format="2">
  <advance width="578"/>
  <unicode hex="00F7"/>
  <outline>
    <contour>
      <point x="61" y="285" type="line"/>
      <point x="61" y="385" type="line"/>
      <point x="517" y="385" type="line"/>
      <point x="517" y="285" type="line"/>
    </contour>
    <contour>
      <point x="235" y="91" type="line"/>
      <point x="235" y="199" type="line"/>
      <point x="343" y="199" type="line"/>
      <point x="343" y="91" type="line"/>
    </contour>
    <contour>
      <point x="235" y="471" type="line"/>
      <point x="235" y="579" type="line"/>
      <point x="343" y="579" type="line"/>
      <point x="343" y="471" type="line"/>
    </contour>
  </outline>
</glyph>
<glyph name="oslash" format="2">
  <advance width="589"/>
  <unicode hex="00F8"/>
  <outline>
    <contour>
      <point x="67" y="158" type="qcurve" smooth="yes"/>
      <point x="67" y="367" type="line" smooth="yes"/>
      <point x="67" y="525"/>
      <point x="225" y="525" type="qcurve" smooth="yes"/>
      <point x="365" y="525" type="line" smooth="yes"/>
      <point x="522" y="525"/>
      <point x="522" y="367" type="qcurve" smooth="yes"/>
      <point x="522" y="158" type="line" smooth="yes"/>
      <point x="522" y="0"/>
      <point x="365" y="0" type="qcurve" smooth="yes"/>
      <point x="225" y="0" type="line" smooth="yes"/>
      <point x="67" y="0"/>
    </contour>
    <contour>
      <point x="184" y="218" type="line"/>
      <point x="395" y="408" type="line"/>
      <point x="383" y="424"/>
      <point x="359" y="424" type="qcurve" smooth="yes"/>
      <point x="230" y="424" type="line" smooth="yes"/>
      <point x="184" y="424"/>
      <point x="184" y="377" type="qcurve" smooth="yes"/>
    </contour>
    <contour>
      <point x="194" y="117" type="line"/>
      <point x="206" y="102"/>
      <point x="230" y="102" type="qcurve" smooth="yes"/>
      <point x="359" y="102" type="line" smooth="yes"/>
      <point x="406" y="102"/>
      <point x="406" y="148" type="qcurve" smooth="yes"/>
      <point x="406" y="307" type="line"/>
    </contour>
  </outline>
</glyph>
<glyph name="thorn" format="2">
  <advance width="587"/>
  <unicode hex="00FE"/>
  <outline>
    <contour>
      <point x="75" y="-200" type="line"/>
      <point x="75" y="740" type="line"/>
      <point x="192" y="740" type="line"/>
      <point x="192" y="525" type="line"/>
      <point x="363" y="525" type="line" smooth="yes"/>
      <point x="520" y="525"/>
      <point x="520" y="367" type="qcurve" smooth="yes"/>
      <point x="520" y="158" type="line" smooth="yes"/>
      <point x="520" y="0"/>
      <point x="363" y="0" type="qcurve" smooth="yes"/>
      <point x="192" y="0" type="line"/>
      <point x="192" y="-200" type="line"/>
    </contour>
    <contour>
      <point x="192" y="102" type="line"/>
      <point x="357" y="102" type="line" smooth="yes"/>
      <point x="404" y="102"/>
      <point x="404" y="148" type="qcurve" smooth="yes"/>
      <point x="404" y="377" type="line" smooth="yes"/>
      <point x="404" y="424"/>
      <point x="357" y="424" type="qcurve" smooth="yes"/>
      <point x="192" y="424" type="line"/>
    </contour>
  </outline>
</glyph>
<glyph name="dcroat" format="2">
  <advance width="587"/>
  <unicode hex="0111"/>
  <outline>
    <contour>
      <point x="67" y="158" type="qcurve" smooth="yes"/>
      <point x="67" y="367" type="line" smooth="yes"/>
      <point x="67" y="525"/>
      <point x="225" y="525" type="qcurve" smooth="yes"/>
      <point x="396" y="525" type="line"/>
      <point x="396" y="592" type="line"/>
      <point x="237" y="592" type="line"/>
      <point x="237" y="673" type="line"/>
      <point x="396" y="673" type="line"/>
      <point x="396" y="740" type="line"/>
      <point x="512" y="740" type="line"/>
      <point x="512" y="673" type="line"/>
      <point x="581" y="673" type="line"/>
      <point x="581" y="592" type="line"/>
      <point x="512" y="592" type="line"/>
      <point x="512" y="0" type="line"/>
      <point x="225" y="0" type="line" smooth="yes"/>
      <point x="67" y="0"/>
    </contour>
    <contour>
      <point x="184" y="148" type="line" smooth="yes"/>
      <point x="184" y="102"/>
      <point x="230" y="102" type="qcurve" smooth="yes"/>
      <point x="396" y="102" type="line"/>
      <point x="396" y="424" type="line"/>
      <point x="230" y="424" type="line" smooth="yes"/>
      <point x="184" y="424"/>
      <point x="184" y="377" type="qcurve" smooth="yes"/>
    </contour>
  </outline>
</glyph>
<glyph name="dotlessi" format="2">
  <advance width="266"/>
  <unicode hex="0131"/>
  <outline>
    <contour>
      <point x="75" y="0" type="line"/>
      <point x="75" y="525" type="line"/>
      <point x="192" y="525" type="line"/>
      <point x="192" y="0" type="line"/>
    </contour>
  </outline>
</glyph>
<glyph name="lslash" format="2">
  <advance width="313"/>
  <unicode hex="0142"/>
  <outline>
    <contour>
      <point x="-3" y="343" type="line"/>
      <point x="86" y="394" type="line"/>
      <point x="86" y="740" type="line"/>
      <point x="203" y="740" type="line"/>
      <point x="203" y="461" type="line"/>
      <point x="270" y="500" type="line"/>
      <point x="314" y="423" type="line"/>
      <point x="203" y="359" type="line"/>
      <point x="203" y="162" type="line" smooth="yes"/>
      <point x="203" y="98"/>
      <point x="269" y="92" type="qcurve"/>
      <point x="269" y="-9" type="line"/>
      <point x="86" y="-9"/>
      <point x="86" y="174" type="qcurve" smooth="yes"/>
      <point x="86" y="292" type="line"/>
      <point x="42" y="266" type="line"/>
    </contour>
  </outline>
</glyph>
<glyph name="florin" format="2">
  <advance width="575"/>
  <unicode hex="0192"/>
  <outline>
    <contour>
      <point x="40" y="-52" type="line"/>
      <point x="139" y="-52" type="line" smooth="yes"/>
      <point x="185" y="-52"/>
      <point x="185" y="-6" type="qcurve" smooth="yes"/>
      <point x="185" y="582" type="line" smooth="yes"/>
      <point x="185" y="740"/>
      <point x="343" y="740" type="qcurve" smooth="yes"/>
      <point x="438" y="740" type="line"/>
      <point x="490" y="701" type="line"/>
      <point x="490" y="638" type="line"/>
      <point x="348" y="638" type="line" smooth="yes"/>
      <point x="302" y="638"/>
      <point x="302" y="592" type="qcurve" smooth="yes"/>
      <point x="302" y="525" type="line"/>
      <point x="480" y="525" type="line"/>
      <point x="480" y="424" type="line"/>
      <point x="302" y="424" type="line"/>
      <point x="302" y="4" type="line" smooth="yes"/>
      <point x="302" y="-154"/>
      <point x="144" y="-154" type="qcurve" smooth="yes"/>
      <point x="93" y="-154" type="line"/>
      <point x="40" y="-114" type="line"/>
    </contour>
  </outline>
</glyph>
<glyph name="uni0303" format="2">
  <advance width="0"/>
  <unicode hex="0303"/>
  <outline>
    <contour>
      <point x="-457" y="647" type="line"/>
      <point x="-394" y="710" type="line" smooth="yes"/>
      <point x="-374" y="730"/>
      <point x="-308" y="730"/>
      <point x="-288" y="710" type="qcurve" smooth="yes"/>
      <point x="-246" y="668" type="line" smooth="yes"/>
      <point x="-241" y="663"/>
      <point x="-231" y="663"/>
      <point x="-226" y="668" type="qcurve" smooth="yes"/>
      <point x="-171" y="723" type="line"/>
      <point x="-120" y="671" type="line"/>
      <point x="-183" y="608" type="line" smooth="yes"/>
      <point x="-203" y="588"/>
      <point x="-269" y="588"/>
      <point x="-289" y="608" type="qcurve" smooth="yes"/>
      <point x="-331" y="650" type="line" smooth="yes"/>
      <point x="-336" y="655"/>
      <point x="-346" y="655"/>
      <point x="-351" y="650" type="qcurve" smooth="yes"/>
      <point x="-406" y="595" type="line"/>
    </contour>
  </outline>
</glyph>
<glyph name="uni0304" format="2">
  <advance width="0"/>
  <unicode hex="0304"/>
  <outline>
    <contour>
      <point x="-429" y="621" type="line"/>
      <point x="-429" y="705" type="line"/>
      <point x="-148" y="705" type="line"/>
      <point x="-148" y="621" type="line"/>
    </contour>
  </outline>
</glyph>
<glyph name="uni0306" format="2">
  <advance width="0"/>
  <unicode hex="0306"/>
  <outline>
    <contour>
      <point x="-422" y="677" type="qcurve" smooth="yes"/>
      <point x="-422" y="739" type="line"/>
      <point x="-351" y="739" type="line"/>
      <point x="-351" y="679" type="line" smooth="yes"/>
      <point x="-351" y="667"/>
      <point x="-340" y="667" type="qcurve" smooth="yes"/>
      <point x="-237" y="667" type="line" smooth="yes"/>
      <point x="-226" y="667"/>
      <point x="-226" y="679" type="qcurve" smooth="yes"/>
      <point x="-226" y="739" type="line"/>
      <point x="-155" y="739" type="line"/>
      <point x="-155" y="677" type="line" smooth="yes"/>
      <point x="-155" y="597"/>
      <point x="-236" y="597" type="qcurve" smooth="yes"/>
      <point x="-342" y="597" type="line" smooth="yes"/>
      <point x="-422" y="597"/>
    </contour>
  </outline>
</glyph>
<glyph name="uni0308" format="2">
  <advance width="0"/>
  <unicode hex="0308"/>
  <outline>
    <contour>
      <point x="-437" y="608" type="line"/>
      <point x="-437" y="718" type="line"/>
      <point x="-332" y="718" type="line"/>
      <point x="-332" y="608" type="line"/>
    </contour>
    <contour>
      <point x="-245" y="608" type="line"/>
      <point x="-245" y="718" type="line"/>
      <point x="-140" y="718" type="line"/>
      <point x="-140" y="608" type="line"/>
    </contour>
  </outline>
</glyph>
<glyph name="uni030A" format="2">
  <advance width="0"/>
  <unicode hex="030A"/>
  <outline>
    <contour>
      <point x="-399" y="646" type="qcurve" smooth="yes"/>
      <point x="-399" y="704" type="line" smooth="yes"/>
      <point x="-399" y="780"/>
      <point x="-323" y="780" type="qcurve" smooth="yes"/>
      <point x="-254" y="780" type="line" smooth="yes"/>
      <point x="-178" y="780"/>
      <point x="-178" y="704" type="qcurve" smooth="yes"/>
      <point x="-178" y="646" type="line" smooth="yes"/>
      <point x="-178" y="570"/>
      <point x="-254" y="570" type="qcurve" smooth="yes"/>
      <point x="-323" y="570" type="line" smooth="yes"/>
      <point x="-399" y="570"/>
    </contour>
    <contour>
      <point x="-331" y="642" type="line" smooth="yes"/>
      <point x="-331" y="630"/>
      <point x="-319" y="630" type="qcurve" smooth="yes"/>
      <point x="-259" y="630" type="line" smooth="yes"/>
      <point x="-246" y="630"/>
      <point x="-246" y="642" type="qcurve" smooth="yes"/>
      <point x="-246" y="708" type="line" smooth="yes"/>
      <point x="-246" y="720"/>
      <point x="-259" y="720" type="qcurve" smooth="yes"/>
      <point x="-319" y="720" type="line" smooth="yes"/>
      <point x="-331" y="720"/>
      <point x="-331" y="708" type="qcurve" smooth="yes"/>
    </contour>
  </outline>
</glyph>
<glyph name="uni030C" format="2">
  <advance width="0"/>
  <unicode hex="030C"/>
  <outline>
    <contour>
      <point x="-438" y="718" type="line"/>
      <point x="-387" y="772" type="line"/>
      <point x="-289" y="679" type="line"/>
      <point x="-190" y="772" type="line"/>
      <point x="-139" y="718" type="line"/>
      <point x="-289" y="571" type="line"/>
    </contour>
  </outline>
</glyph>
<glyph name="pi" format="2">
  <advance width="595"/>
  <unicode hex="03C0"/>
  <outline>
    <contour>
      <point x="75" y="0" type="line"/>
      <point x="75" y="525" type="line"/>
      <point x="520" y="525" type="line"/>
      <point x="520" y="0" type="line"/>
      <point x="404" y="0" type="line"/>
      <point x="404" y="424" type="line"/>
      <point x="192" y="424" type="line"/>
      <point x="192" y="0" type="line"/>
    </contour>
  </outline>
</glyph>
<glyph name="emdash" format="2">
  <advance width="1000"/>
  <unicode hex="2014"/>
  <outline>
    <contour>
      <point x="40" y="255" type="line"/>
      <point x="40" y="355" type="line"/>
      <point x="960" y="355" type="line"/>
      <point x="960" y="255" type="line"/>
    </contour>
  </outline>
</glyph>
<glyph name="daggerdbl" format="2">
  <advance width="495"/>
  <unicode hex="2021"/>
  <outline>
    <contour>
      <point x="50" y="85" type="line"/>
      <point x="50" y="185" type="line"/>
      <point x="195" y="185" type="line"/>
      <point x="195" y="405" type="line"/>
      <point x="50" y="405" type="line"/>
      <point x="50" y="505" type="line"/>
      <point x="195" y="505" type="line"/>
      <point x="195" y="690" type="line"/>
      <point x="300" y="690" type="line"/>
      <point x="300" y="505" type="line"/>
      <point x="445" y="505" type="line"/>
      <point x="445" y="405" type="line"/>
      <point x="300" y="405" type="line"/>
      <point x="300" y="185" type="line"/>
      <point x="445" y="185" type="line"/>
      <point x="445" y="85" type="line"/>
      <point x="300" y="85" type="line"/>
      <point x="300" y="-100" type="line"/>
      <point x="195" y="-100" type="line"/>
      <point x="195" y="85" type="line"/>
    </contour>
  </outline>
</glyph>
<glyph name="bullet" format="2">
  <advance width="365"/>
  <unicode hex="2022"/>
  <outline>
    <contour>
      <point x="70" y="247" type="line"/>
      <point x="70" y="473" type="line"/>
      <point x="295" y="473" type="line"/>
      <point x="295" y="247" type="line"/>
    </contour>
  </outline>
</glyph>
<glyph name="guilsinglleft" format="2">
  <advance width="328"/>
  <unicode hex="2039"/>
  <outline>
    <contour>
      <point x="30" y="315" type="line"/>
      <point x="216" y="549" type="line"/>
      <point x="288" y="489" type="line"/>
      <point x="154" y="315" type="line"/>
      <point x="288" y="141" type="line"/>
      <point x="216" y="81" type="line"/>
    </contour>
  </outline>
</glyph>
<glyph name="guilsinglright" format="2">
  <advance width="328"/>
  <unicode hex="203A"/>
  <outline>
    <contour>
      <point x="40" y="141" type="line"/>
      <point x="174" y="315" type="line"/>
      <point x="40" y="489" type="line"/>
      <point x="112" y="549" type="line"/>
      <point x="298" y="315" type="line"/>
      <point x="112" y="81" type="line"/>
    </contour>
  </outline>
</glyph>
<glyph name="fraction" format="2">
  <advance width="146"/>
  <unicode hex="2044"/>
  <outline>
    <contour>
      <point x="-134" y="36" type="line"/>
      <point x="196" y="696" type="line"/>
      <point x="281" y="654" type="line"/>
      <point x="-49" y="-6" type="line"/>
    </contour>
  </outline>
</glyph>
<glyph name="Euro" format="2">
  <advance width="578"/>
  <unicode hex="20AC"/>
  <outline>
    <contour>
      <point x="28" y="231" type="line"/>
      <point x="28" y="312" type="line"/>
      <point x="96" y="312" type="line"/>
      <point x="96" y="378" type="line"/>
      <point x="28" y="378" type="line"/>
      <point x="28" y="459" type="line"/>
      <point x="96" y="459" type="line"/>
      <point x="96" y="528" type="line" smooth="yes"/>
      <point x="96" y="690"/>
      <point x="259" y="690" type="qcurve" smooth="yes"/>
      <point x="481" y="690" type="line"/>
      <point x="540" y="644" type="line"/>
      <point x="540" y="580" type="line"/>
      <point x="262" y="580" type="line" smooth="yes"/>
      <point x="218" y="580"/>
      <point x="218" y="536" type="qcurve" smooth="yes"/>
      <point x="218" y="459" type="line"/>
      <point x="466" y="459" type="line"/>
      <point x="466" y="378" type="line"/>
      <point x="218" y="378" type="line"/>
      <point x="218" y="312" type="line"/>
      <point x="422" y="312" type="line"/>
      <point x="422" y="231" type="line"/>
      <point x="218" y="231" type="line"/>
      <point x="218" y="154" type="line" smooth="yes"/>
      <point x="218" y="110"/>
      <point x="262" y="110" type="qcurve" smooth="yes"/>
      <point x="540" y="110" type="line"/>
      <point x="540" y="46" type="line"/>
      <point x="481" y="0" type="line"/>
      <point x="259" y="0" type="line" smooth="yes"/>
      <point x="96" y="0"/>
      <point x="96" y="162" type="qcurve" smooth="yes"/>
      <point x="96" y="231" type="line"/>
    </contour>
  </outline>
</glyph>
<glyph name="uni20BA" format="2">
  <advance width="578"/>
  <unicode hex="20BA"/>
  <outline>
    <contour>
      <point x="23" y="308" type="line"/>
      <point x="116" y="346" type="line"/>
      <point x="116" y="409" type="line"/>
      <point x="53" y="383" type="line"/>
      <point x="23" y="458" type="line"/>
      <point x="116" y="496" type="line"/>
      <point x="116" y="690" type="line"/>
      <point x="238" y="690" type="line"/>
      <point x="238" y="545" type="line"/>
      <point x="412" y="615" type="line"/>
      <point x="442" y="540" type="line"/>
      <point x="238" y="458" type="line"/>
      <point x="238" y="395" type="line"/>
      <point x="412" y="465" type="line"/>
      <point x="442" y="390" type="line"/>
      <point x="238" y="308" type="line"/>
      <point x="238" y="110" type="line"/>
      <point x="268" y="110" type="line" smooth="yes"/>
      <point x="415" y="110"/>
      <point x="415" y="255" type="qcurve" smooth="yes"/>
      <point x="415" y="300" type="line"/>
      <point x="532" y="300" type="line"/>
      <point x="532" y="270" type="line" smooth="yes"/>
      <point x="532" y="0"/>
      <point x="261" y="0" type="qcurve" smooth="yes"/>
      <point x="116" y="0" type="line"/>
      <point x="116" y="259" type="line"/>
      <point x="53" y="233" type="line"/>
    </contour>
  </outline>
</glyph>
<glyph name="trademark" format="2">
  <advance width="790"/>
  <unicode hex="2122"/>
  <outline>
    <contour>
      <point x="20" y="612" type="line"/>
      <point x="20" y="690" type="line"/>
      <point x="309" y="690" type="line"/>
      <point x="309" y="612" type="line"/>
      <point x="208" y="612" type="line"/>
      <point x="208" y="336" type="line"/>
      <point x="121" y="336" type="line"/>
      <point x="121" y="612" type="line"/>
    </contour>
    <contour>
      <point x="348" y="336" type="line"/>
      <point x="348" y="690" type="line"/>
      <point x="449" y="690" type="line"/>
      <point x="541" y="492" type="line"/>
      <point x="634" y="690" type="line"/>
      <point x="735" y="690" type="line"/>
      <point x="735" y="336" type="line"/>
      <point x="648" y="336" type="line"/>
      <point x="648" y="533" type="line"/>
      <point x="576" y="378" type="line"/>
      <point x="507" y="378" type="line"/>
      <point x="434" y="533" type="line"/>
      <point x="434" y="336" type="line"/>
    </contour>
  </outline>
</glyph>
<glyph name="Delta" format="2">
  <advance width="663"/>
  <unicode hex="2206"/>
  <outline>
    <contour>
      <point x="19" y="24" type="line"/>
      <point x="233" y="690" type="line"/>
      <point x="429" y="690" type="line"/>
      <point x="644" y="24" type="line"/>
      <point x="628" y="0" type="line"/>
      <point x="35" y="0" type="line"/>
    </contour>
    <contour>
      <point x="168" y="110" type="line"/>
      <point x="494" y="110" type="line"/>
      <point x="344" y="580" type="line"/>
      <point x="319" y="580" type="line"/>
    </contour>
  </outline>
</glyph>
<glyph name="product" format="2">
  <advance width="705"/>
  <unicode hex="220F"/>
  <outline>
    <contour>
      <point x="85" y="-100" type="line"/>
      <point x="85" y="690" type="line"/>
      <point x="620" y="690" type="line"/>
      <point x="620" y="-100" type="line"/>
      <point x="498" y="-100" type="line"/>
      <point x="498" y="580" type="line"/>
      <point x="207" y="580" type="line"/>
      <point x="207" y="-100" type="line"/>
    </contour>
  </outline>
</glyph>
<glyph name="minus" format="2">
  <advance width="578"/>
  <unicode hex="2212"/>
  <outline>
    <contour>
      <point x="61" y="285" type="line"/>
      <point x="61" y="385" type="line"/>
      <point x="517" y="385" type="line"/>
      <point x="517" y="285" type="line"/>
    </contour>
  </outline>
</glyph>
<glyph name="radical" format="2">
  <advance width="600"/>
  <unicode hex="221A"/>
  <outline>
    <contour>
      <point x="20" y="315" type="line"/>
      <point x="20" y="400" type="line"/>
      <point x="187" y="400" type="line"/>
      <point x="279" y="124" type="line"/>
      <point x="511" y="794" type="line"/>
      <point x="600" y="764" type="line"/>
      <point x="329" y="-10" type="line"/>
      <point x="223" y="-10" type="line"/>
      <point x="112" y="315" type="line"/>
    </contour>
  </outline>
</glyph>
<glyph name="integral" format="2">
  <advance width="457"/>
  <unicode hex="222B"/>
  <outline>
    <contour>
      <point x="20" y="-98" type="line"/>
      <point x="124" y="-98" type="line" smooth="yes"/>
      <point x="170" y="-98"/>
      <point x="170" y="-52" type="qcurve" smooth="yes"/>
      <point x="170" y="582" type="line" smooth="yes"/>
      <point x="170" y="740"/>
      <point x="328" y="740" type="qcurve" smooth="yes"/>
      <point x="384" y="740" type="line"/>
      <point x="437" y="701" type="line"/>
      <point x="437" y="638" type="line"/>
      <point x="333" y="638" type="line" smooth="yes"/>
      <point x="287" y="638"/>
      <point x="287" y="592" type="qcurve" smooth="yes"/>
      <point x="287" y="-42" type="line" smooth="yes"/>
      <point x="287" y="-200"/>
      <point x="129" y="-200" type="qcurve" smooth="yes"/>
      <point x="73" y="-200" type="line"/>
      <point x="20" y="-161" type="line"/>
    </contour>
  </outline>
</glyph>
<glyph name="notequal" format="2">
  <advance width="578"/>
  <unicode hex="2260"/>
  <outline>
    <contour>
      <point x="61" y="175" type="line"/>
      <point x="61" y="275" type="line"/>
      <point x="207" y="275" type="line"/>
      <point x="268" y="395" type="line"/>
      <point x="61" y="395" type="line"/>
      <point x="61" y="495" type="line"/>
      <point x="319" y="495" type="line"/>
      <point x="378" y="612" type="line"/>
      <point x="460" y="570" type="line"/>
      <point x="422" y="495" type="line"/>
      <point x="517" y="495" type="line"/>
      <point x="517" y="395" type="line"/>
      <point x="371" y="395" type="line"/>
      <point x="310" y="275" type="line"/>
      <point x="517" y="275" type="line"/>
      <point x="517" y="175" type="line"/>
      <point x="259" y="175" type="line"/>
      <point x="200" y="58" type="line"/>
      <point x="118" y="100" type="line"/>
      <point x="156" y="175" type="line"/>
    </contour>
  </outline>
</glyph>
<glyph name=".notdef" format="2">
  <advance width="591"/>
  <outline>
    <contour>
      <point x="86" y="0" type="line"/>
      <point x="86" y="740" type="line"/>
      <point x="505" y="740" type="line"/>
      <point x="505" y="0" type="line"/>
    </contour>
    <contour>
      <point x="155" y="69" type="line"/>
      <point x="436" y="69" type="line"/>
      <point x="436" y="671" type="line"/>
      <point x="155" y="671" type="line"/>
    </contour>
  </outline>
</glyph>
<glyph name="uni0301.cap" format="2">
  <advance width="0"/>
  <outline>
    <contour>
      <point x="-403" y="784" type="line"/>
      <point x="-268" y="937" type="line"/>
      <point x="-201" y="873" type="line"/>
      <point x="-345" y="729" type="line"/>
    </contour>
  </outline>
</glyph>
<glyph name="uni0302.cap" format="2">
  <advance width="0"/>
  <outline>
    <contour>
      <point x="-476" y="790" type="line"/>
      <point x="-326" y="937" type="line"/>
      <point x="-176" y="790" type="line"/>
      <point x="-228" y="736" type="line"/>
      <point x="-326" y="829" type="line"/>
      <point x="-425" y="736" type="line"/>
    </contour>
  </outline>
</glyph>
<glyph name="uni0304.cap" format="2">
  <advance width="0"/>
  <outline>
    <contour>
      <point x="-466" y="776" type="line"/>
      <point x="-466" y="860" type="line"/>
      <point x="-186" y="860" type="line"/>
      <point x="-186" y="776" type="line"/>
    </contour>
  </outline>
</glyph>
<glyph name="uni0307.cap" format="2">
  <advance width="0"/>
  <outline>
    <contour>
      <point x="-387" y="769" type="line"/>
      <point x="-387" y="887" type="line"/>
      <point x="-266" y="887" type="line"/>
      <point x="-266" y="769" type="line"/>
    </contour>
  </outline>
</glyph>
<glyph name="uni030A.cap" format="2">
  <advance width="0"/>
  <outline>
    <contour>
      <point x="-437" y="801" type="qcurve" smooth="yes"/>
      <point x="-437" y="859" type="line" smooth="yes"/>
      <point x="-437" y="935"/>
      <point x="-361" y="935" type="qcurve" smooth="yes"/>
      <point x="-292" y="935" type="line" smooth="yes"/>
      <point x="-215" y="935"/>
      <point x="-215" y="859" type="qcurve" smooth="yes"/>
      <point x="-215" y="801" type="line" smooth="yes"/>
      <point x="-215" y="725"/>
      <point x="-292" y="725" type="qcurve" smooth="yes"/>
      <point x="-361" y="725" type="line" smooth="yes"/>
      <point x="-437" y="725"/>
    </contour>
    <contour>
      <point x="-369" y="797" type="line" smooth="yes"/>
      <point x="-369" y="785"/>
      <point x="-356" y="785" type="qcurve" smooth="yes"/>
      <point x="-296" y="785" type="line" smooth="yes"/>
      <point x="-284" y="785"/>
      <point x="-284" y="797" type="qcurve" smooth="yes"/>
      <point x="-284" y="863" type="line" smooth="yes"/>
      <point x="-284" y="875"/>
      <point x="-296" y="875" type="qcurve" smooth="yes"/>
      <point x="-356" y="875" type="line" smooth="yes"/>
      <point x="-369" y="875"/>
      <point x="-369" y="863" type="qcurve" smooth="yes"/>
    </contour>
  </outline>
</glyph>
<glyph name="uni030C.alt" format="2">
  <advance width="0"/>
  <outline>
    <contour>
      <point x="-64" y="586" type="line"/>
      <point x="-28" y="765" type="line"/>
      <point x="52" y="765" type="line"/>
      <point x="64" y="747" type="line"/>
      <point x="5" y="569" type="line"/>
    </contour>
  </outline>
</glyph>
<glyph name="uni030C.cap" format="2">
  <advance width="0"/>
  <outline>
    <contour>
      <point x="-476" y="873" type="line"/>
      <point x="-425" y="927" type="line"/>
      <point x="-326" y="834" type="line"/>
      <point x="-228" y="927" type="line"/>
      <point x="-176" y="873" type="line"/>
      <point x="-326" y="726" type="line"/>
    </contour>
  </outline>
</glyph>
